<svg xmlns="http://www.w3.org/2000/svg" viewBox="0 0 1200 720" fill="none">
  <rect width="1200" height="720" rx="12" fill="#151c24"/>
  <rect x="0" y="0" width="1200" height="48" fill="#1e2835"/>
  <circle cx="28" cy="24" r="6" fill="#ff5f57"/><circle cx="52" cy="24" r="6" fill="#febc2e"/><circle cx="76" cy="24" r="6" fill="#28c840"/>
  <rect x="320" y="14" width="560" height="20" rx="6" fill="#2a3545"/>
  <rect x="48" y="88" width="200" height="584" rx="8" fill="#1a222c" stroke="#2a3545"/>
  <rect x="72" y="120" width="152" height="10" rx="3" fill="#3d9cf0" opacity="0.35"/>
  <rect x="72" y="148" width="120" height="8" rx="2" fill="#3a4658"/>
  <rect x="72" y="172" width="140" height="8" rx="2" fill="#3a4658"/>
  <rect x="72" y="196" width="100" height="8" rx="2" fill="#3a4658"/>
  <rect x="280" y="88" width="872" height="120" rx="8" fill="#1a222c" stroke="#2a3545"/>
  <rect x="312" y="120" width="180" height="14" rx="4" fill="#e8eef5" opacity="0.9"/>
  <rect x="312" y="150" width="420" height="10" rx="2" fill="#5a6b82"/>
  <rect x="280" y="232" width="420" height="200" rx="8" fill="#1a222c" stroke="#2a3545"/>
  <rect x="720" y="232" width="432" height="200" rx="8" fill="#1a222c" stroke="#2a3545"/>
  <rect x="312" y="268" width="120" height="10" rx="2" fill="#3d9cf0" opacity="0.5"/>
  <rect x="312" y="292" width="340" height="8" rx="2" fill="#3a4658"/>
  <rect x="312" y="312" width="300" height="8" rx="2" fill="#3a4658"/>
  <rect x="752" y="268" width="200" height="10" rx="2" fill="#3a4658"/>
  <rect x="752" y="292" width="360" height="8" rx="2" fill="#3a4658"/>
  <rect x="280" y="456" width="872" height="216" rx="8" fill="#1a222c" stroke="#2a3545"/>
  <rect x="312" y="492" width="800" height="12" rx="3" fill="#243040"/>
  <rect x="312" y="520" width="760" height="12" rx="3" fill="#243040"/>
  <rect x="312" y="548" width="780" height="12" rx="3" fill="#243040"/>
  <rect x="312" y="576" width="640" height="12" rx="3" fill="#243040"/>
  <rect x="312" y="612" width="200" height="36" rx="6" fill="#3d9cf0" opacity="0.45"/>
</svg>
