<svg xmlns="http://www.w3.org/2000/svg" viewBox="0 0 1200 720" fill="none">
  <rect width="1200" height="720" rx="12" fill="#151c24"/>
  <rect x="0" y="0" width="1200" height="48" fill="#1e2835"/>
  <circle cx="28" cy="24" r="6" fill="#ff5f57"/><circle cx="52" cy="24" r="6" fill="#febc2e"/><circle cx="76" cy="24" r="6" fill="#28c840"/>
  <rect x="280" y="88" width="872" height="584" rx="8" fill="#1a222c" stroke="#2a3545"/>
  <rect x="312" y="120" width="240" height="16" rx="4" fill="#e8eef5" opacity="0.88"/>
  <rect x="312" y="156" width="520" height="10" rx="2" fill="#5a6b82"/>
  <rect x="312" y="200" width="808" height="44" rx="6" fill="#243040"/>
  <rect x="328" y="214" width="80" height="16" rx="3" fill="#3d9cf0" opacity="0.35"/>
  <rect x="420" y="214" width="120" height="16" rx="3" fill="#3a4658"/>
  <rect x="560" y="214" width="100" height="16" rx="3" fill="#3a4658"/>
  <rect x="680" y="214" width="140" height="16" rx="3" fill="#3a4658"/>
  <rect x="312" y="264" width="260" height="180" rx="8" fill="#151c24" stroke="#2a3545"/>
  <rect x="596" y="264" width="260" height="180" rx="8" fill="#151c24" stroke="#2a3545"/>
  <rect x="880" y="264" width="240" height="180" rx="8" fill="#151c24" stroke="#2a3545"/>
  <rect x="332" y="300" width="80" height="80" rx="6" fill="#3d9cf0" opacity="0.2"/>
  <path d="M352 360 L368 340 L388 355 L412 318 L428 360Z" stroke="#3d9cf0" stroke-width="3" fill="none" opacity="0.6"/>
  <rect x="616" y="300" width="200" height="12" rx="2" fill="#3a4658"/>
  <rect x="616" y="324" width="160" height="12" rx="2" fill="#3a4658"/>
  <rect x="616" y="348" width="180" height="12" rx="2" fill="#3a4658"/>
  <rect x="900" y="300" width="200" height="120" rx="4" fill="#243040"/>
  <rect x="312" y="464" width="808" height="176" rx="8" fill="#151c24" stroke="#2a3545"/>
  <rect x="332" y="492" width="768" height="14" rx="3" fill="#243040"/>
  <rect x="332" y="518" width="720" height="14" rx="3" fill="#243040"/>
  <rect x="332" y="544" width="748" height="14" rx="3" fill="#243040"/>
  <rect x="332" y="570" width="680" height="14" rx="3" fill="#243040"/>
  <rect x="332" y="604" width="120" height="24" rx="4" fill="#3d9cf0" opacity="0.4"/>
</svg>
