<svg xmlns="http://www.w3.org/2000/svg" viewBox="0 0 1200 720" fill="none">
  <rect width="1200" height="720" rx="12" fill="#151c24"/>
  <rect x="0" y="0" width="1200" height="48" fill="#1e2835"/>
  <circle cx="28" cy="24" r="6" fill="#ff5f57"/><circle cx="52" cy="24" r="6" fill="#febc2e"/><circle cx="76" cy="24" r="6" fill="#28c840"/>
  <rect x="48" y="88" width="1104" height="584" rx="8" fill="#1a222c" stroke="#2a3545"/>
  <rect x="80" y="120" width="1040" height="64" rx="8" fill="#243040"/>
  <rect x="104" y="142" width="320" height="20" rx="4" fill="#e8eef5" opacity="0.85"/>
  <rect x="920" y="140" width="160" height="24" rx="6" fill="#3d9cf0" opacity="0.35"/>
  <rect x="80" y="208" width="500" height="432" rx="8" fill="#151c24" stroke="#2a3545"/>
  <rect x="604" y="208" width="516" height="432" rx="8" fill="#151c24" stroke="#2a3545"/>
  <rect x="112" y="248" width="200" height="14" rx="3" fill="#3d9cf0" opacity="0.5"/>
  <rect x="112" y="276" width="420" height="10" rx="2" fill="#3a4658"/>
  <rect x="112" y="300" width="380" height="10" rx="2" fill="#3a4658"/>
  <rect x="112" y="340" width="436" height="120" rx="6" fill="#243040"/>
  <rect x="128" y="360" width="400" height="10" rx="2" fill="#3a4658"/>
  <rect x="128" y="382" width="360" height="10" rx="2" fill="#3a4658"/>
  <rect x="128" y="404" width="380" height="10" rx="2" fill="#3a4658"/>
  <rect x="112" y="484" width="100" height="36" rx="6" fill="#3d9cf0" opacity="0.45"/>
  <rect x="224" y="484" width="88" height="36" rx="6" fill="#2a3545"/>
  <rect x="636" y="248" width="180" height="14" rx="3" fill="#e8eef5" opacity="0.75"/>
  <rect x="636" y="280" width="452" height="10" rx="2" fill="#3a4658"/>
  <rect x="636" y="304" width="420" height="10" rx="2" fill="#3a4658"/>
  <rect x="636" y="340" width="452" height="240" rx="8" fill="#243040"/>
  <rect x="660" y="372" width="120" height="12" rx="2" fill="#3d9cf0" opacity="0.35"/>
  <rect x="792" y="372" width="200" height="12" rx="2" fill="#3a4658"/>
  <rect x="660" y="404" width="404" height="10" rx="2" fill="#3a4658"/>
  <rect x="660" y="428" width="380" height="10" rx="2" fill="#3a4658"/>
  <rect x="660" y="452" width="400" height="10" rx="2" fill="#3a4658"/>
  <rect x="660" y="500" width="140" height="36" rx="6" fill="#3d9cf0" opacity="0.3"/>
</svg>
