<svg xmlns="http://www.w3.org/2000/svg" viewBox="0 0 1200 720" fill="none">
  <rect width="1200" height="720" rx="12" fill="#151c24"/>
  <rect x="0" y="0" width="1200" height="48" fill="#1e2835"/>
  <circle cx="28" cy="24" r="6" fill="#ff5f57"/><circle cx="52" cy="24" r="6" fill="#febc2e"/><circle cx="76" cy="24" r="6" fill="#28c840"/>
  <rect x="48" y="88" width="1104" height="584" rx="8" fill="#1a222c" stroke="#2a3545"/>
  <rect x="80" y="120" width="360" height="520" rx="8" fill="#151c24" stroke="#2a3545"/>
  <rect x="104" y="156" width="200" height="12" rx="3" fill="#3d9cf0" opacity="0.45"/>
  <rect x="104" y="184" width="280" height="8" rx="2" fill="#3a4658"/>
  <rect x="104" y="212" width="260" height="8" rx="2" fill="#3a4658"/>
  <rect x="104" y="248" width="312" height="72" rx="6" fill="#243040"/>
  <rect x="104" y="336" width="312" height="72" rx="6" fill="#243040"/>
  <rect x="104" y="424" width="312" height="72" rx="6" fill="#243040"/>
  <rect x="120" y="268" width="8" height="8" rx="2" fill="#3d9cf0"/>
  <rect x="136" y="264" width="200" height="10" rx="2" fill="#5a6b82"/>
  <rect x="120" y="356" width="8" height="8" rx="2" fill="#3a4658"/>
  <rect x="136" y="352" width="180" height="10" rx="2" fill="#5a6b82"/>
  <rect x="120" y="444" width="8" height="8" rx="2" fill="#3a4658"/>
  <rect x="136" y="440" width="220" height="10" rx="2" fill="#5a6b82"/>
  <rect x="464" y="120" width="656" height="520" rx="8" fill="#151c24" stroke="#2a3545"/>
  <rect x="496" y="156" width="280" height="18" rx="4" fill="#e8eef5" opacity="0.9"/>
  <rect x="496" y="192" width="400" height="10" rx="2" fill="#5a6b82"/>
  <rect x="496" y="232" width="592" height="360" rx="8" fill="#243040"/>
  <rect x="528" y="268" width="140" height="100" rx="6" fill="#1a222c" stroke="#2a3545"/>
  <rect x="688" y="268" width="140" height="100" rx="6" fill="#1a222c" stroke="#2a3545"/>
  <rect x="848" y="268" width="140" height="100" rx="6" fill="#1a222c" stroke="#2a3545"/>
  <rect x="528" y="388" width="460" height="12" rx="2" fill="#3a4658"/>
  <rect x="528" y="412" width="400" height="12" rx="2" fill="#3a4658"/>
  <rect x="528" y="436" width="420" height="12" rx="2" fill="#3a4658"/>
  <rect x="528" y="480" width="160" height="40" rx="8" fill="#3d9cf0" opacity="0.35"/>
  <rect x="704" y="480" width="120" height="40" rx="8" fill="#2a3545"/>
</svg>
